<?xml version="1.0" encoding="UTF-8"?><svg style="fill:black" xmlns="http://www.w3.org/2000/svg" xmlns:xlink="http://www.w3.org/1999/xlink" version="1.1" id="Layer_1" x="0px" y="0px" viewBox="0 0 16 16" xml:space="preserve"><path d="M8.898 7.058v3.435c0 .866-.009 1.373.077 1.62.087.243.304.498.552.648.309.197.684.295 1.084.295.73 0 1.166-.098 1.889-.589v2.255a7.82 7.82 0 0 1-1.654.596 6.605 6.605 0 0 1-1.614.182c-.66 0-1.052-.085-1.55-.256a3.664 3.664 0 0 1-1.299-.744c-.364-.319-.603-.659-.742-1.021-.143-.36-.209-.886-.209-1.574V6.648H3.5V4.523c.569-.194 1.199-.467 1.606-.824a4.14 4.14 0 0 0 .962-1.293c.247-.494.415-1.134.509-1.906h2.321v3.751H12.5v2.807H8.898z" fill="none" stroke="#000" stroke-linejoin="round" stroke-miterlimit="10"/><metadata><rdf:RDF xmlns:rdf="http://www.w3.org/1999/02/22-rdf-syntax-ns#" xmlns:rdfs="http://www.w3.org/2000/01/rdf-schema#" xmlns:dc="http://purl.org/dc/elements/1.1/"><rdf:Description about="https://iconscout.com/legal#licenses" dc:title="tumblr,social,line,e" dc:description="tumblr,social,line,e" dc:publisher="Iconscout" dc:date="2018-02-23" dc:format="image/svg+xml" dc:language="en"><dc:creator><rdf:Bag><rdf:li>Pixel Icons</rdf:li></rdf:Bag></dc:creator></rdf:Description></rdf:RDF></metadata></svg>